<svg width="21" height="18" viewBox="0 0 21 18" fill="none" xmlns="http://www.w3.org/2000/svg">
<path d="M6.44819 17.9849C5.71357 17.9927 4.98551 17.8464 4.31098 17.5553C3.63646 17.2642 3.03044 16.8348 2.53218 16.2949C1.51521 15.1509 0.965477 13.6664 0.992137 12.1359V5.86395C0.965477 4.3335 1.51521 2.84894 2.53218 1.70492C3.0304 1.165 3.63632 0.73562 4.31086 0.444515C4.9854 0.15341 5.71356 0.0070835 6.44819 0.0149496H15.5162C16.2451 0.0251216 16.9648 0.178758 17.6343 0.467098C18.3039 0.755438 18.9101 1.17282 19.4183 1.69543C19.9265 2.21804 20.3269 2.83562 20.5964 3.51294C20.8659 4.19025 20.9994 4.91404 20.9892 5.64294C20.9892 5.71694 20.9892 5.79095 20.9812 5.86395V12.0909C21.0277 12.8419 20.9212 13.5945 20.6679 14.3031C20.4147 15.0116 20.0199 15.6613 19.5079 16.2126C18.9958 16.7639 18.3771 17.2054 17.6892 17.5103C17.0012 17.8151 16.2586 17.9769 15.5062 17.9859L6.44819 17.9849ZM2.50923 5.86294V12.1349C2.46766 12.6596 2.52982 13.1874 2.69221 13.688C2.8546 14.1887 3.11401 14.6525 3.45564 15.0529C3.79727 15.4533 4.21445 15.7825 4.6833 16.0217C5.15215 16.2609 5.66348 16.4054 6.18818 16.4469C6.27418 16.4536 6.36024 16.4576 6.44624 16.459H15.4971C16.0412 16.4514 16.578 16.3337 17.0753 16.1128C17.5725 15.8919 18.0199 15.5725 18.3902 15.1739C18.7657 14.7666 19.0542 14.2871 19.2384 13.7646C19.4225 13.2422 19.4984 12.6877 19.4613 12.1349V5.81793C19.4935 5.27149 19.4151 4.72415 19.2309 4.20867C19.0467 3.6932 18.7605 3.22019 18.3892 2.81793C18.0188 2.41916 17.5714 2.09968 17.0739 1.87881C16.5765 1.65794 16.0394 1.54027 15.4952 1.53292H6.44722C5.92086 1.54036 5.40111 1.65142 4.91767 1.85974C4.43424 2.06806 3.99661 2.36955 3.62971 2.74704C3.26282 3.12452 2.97385 3.57059 2.77937 4.05975C2.58488 4.54891 2.48863 5.07157 2.49617 5.59793C2.50017 5.68993 2.50023 5.77594 2.50923 5.86294ZM9.37324 10.1349L9.21223 10.0169L5.07722 6.72192C4.91981 6.59531 4.81869 6.41174 4.79585 6.21102C4.77301 6.01031 4.83022 5.80867 4.95515 5.64993C5.06766 5.50685 5.22807 5.40916 5.40681 5.37481C5.58555 5.34046 5.77064 5.37177 5.92817 5.46295L6.02217 5.52594L10.1502 8.82095C10.3727 8.99603 10.6437 9.09839 10.9263 9.11413C11.209 9.12988 11.4896 9.05822 11.7302 8.90893L11.8482 8.82693L15.9482 5.53195C16.1037 5.40657 16.3026 5.34793 16.5013 5.36892C16.7 5.38992 16.8823 5.48883 17.0083 5.64395L17.0131 5.65094C17.128 5.79421 17.1876 5.97394 17.1812 6.15744C17.1748 6.34094 17.1028 6.51604 16.9782 6.65094L16.8952 6.72692L12.7891 10.0219C12.3056 10.4011 11.714 10.6166 11.0998 10.6371C10.4857 10.6576 9.88098 10.482 9.37324 10.1359V10.1349Z" fill="white"/>
</svg>
