<svg width="18" height="18" viewBox="0 0 18 18" fill="none" xmlns="http://www.w3.org/2000/svg">
<path d="M11.585 14.8669C11.5711 14.2342 11.7457 13.6116 12.0863 13.0781C12.4269 12.5447 12.9183 12.1245 13.4982 11.8709C14.078 11.6172 14.7202 11.5416 15.3431 11.6535C15.9661 11.7655 16.5417 12.0599 16.9969 12.4996C17.4522 12.9392 17.7667 13.5042 17.9003 14.1229C18.0339 14.7415 17.9807 15.3859 17.7474 15.9743C17.5142 16.5626 17.1114 17.0684 16.5902 17.4275C16.069 17.7865 15.4528 17.9826 14.8199 17.9909H14.778C13.9405 17.9992 13.134 17.6749 12.5354 17.0892C11.9368 16.5035 11.595 15.7043 11.585 14.8669ZM13.085 14.8669C13.0769 15.2039 13.1691 15.5356 13.35 15.82C13.5308 16.1044 13.7922 16.3287 14.1008 16.4642C14.4094 16.5998 14.7513 16.6405 15.0831 16.5813C15.4149 16.5221 15.7217 16.3656 15.9644 16.1317C16.207 15.8978 16.3747 15.597 16.446 15.2676C16.5174 14.9382 16.4891 14.595 16.365 14.2816C16.2408 13.9683 16.0264 13.6989 15.7488 13.5077C15.4712 13.3165 15.1431 13.2122 14.806 13.2079H14.782C14.5615 13.2053 14.3427 13.2461 14.1379 13.328C13.9332 13.41 13.7466 13.5314 13.5889 13.6855C13.4311 13.8396 13.3052 14.0232 13.2184 14.2259C13.1316 14.4286 13.0856 14.6464 13.083 14.8669H13.085ZM1.74902 15.5999C1.65055 15.6035 1.55237 15.5873 1.46033 15.5521C1.36828 15.5169 1.28421 15.4636 1.21326 15.3952C1.14231 15.3268 1.08591 15.2448 1.04736 15.1542C1.00882 15.0635 0.988892 14.9659 0.988892 14.8674C0.988892 14.7689 1.00882 14.6713 1.04736 14.5807C1.08591 14.49 1.14231 14.408 1.21326 14.3396C1.28421 14.2712 1.36828 14.2179 1.46033 14.1827C1.55237 14.1475 1.65055 14.1313 1.74902 14.1349H7.88904C7.98751 14.1313 8.08569 14.1475 8.17773 14.1827C8.26978 14.2179 8.35373 14.2712 8.42468 14.3396C8.49563 14.408 8.55215 14.49 8.5907 14.5807C8.62925 14.6713 8.64905 14.7689 8.64905 14.8674C8.64905 14.9659 8.62925 15.0635 8.5907 15.1542C8.55215 15.2448 8.49563 15.3268 8.42468 15.3952C8.35373 15.4636 8.26978 15.5169 8.17773 15.5521C8.08569 15.5873 7.98751 15.6035 7.88904 15.5999H1.74902ZM1 4.13191C0.986289 3.49739 1.16195 2.87318 1.50452 2.33891C1.84708 1.80464 2.34099 1.38453 2.92334 1.1322C3.50568 0.879864 4.15009 0.80674 4.77417 0.922159C5.39825 1.03758 5.97379 1.3363 6.42737 1.78022C6.88095 2.22414 7.19198 2.79312 7.3208 3.41458C7.44963 4.03603 7.39037 4.68178 7.15063 5.26942C6.91089 5.85706 6.5015 6.35995 5.97473 6.71394C5.44796 7.06792 4.82766 7.25696 4.19299 7.25691C3.3554 7.26517 2.54871 6.94076 1.95007 6.35487C1.35143 5.76898 1.00976 4.96949 1 4.13191ZM2.5 4.13191C2.4919 4.46886 2.58414 4.80062 2.76501 5.08503C2.94589 5.36944 3.20728 5.59367 3.51587 5.72923C3.82446 5.86478 4.16636 5.90555 4.49817 5.84634C4.82998 5.78713 5.13673 5.63061 5.37939 5.39669C5.62206 5.16277 5.78962 4.86199 5.86096 4.53257C5.9323 4.20315 5.90417 3.85997 5.78003 3.54661C5.65588 3.23325 5.44141 2.96388 5.16382 2.7727C4.88623 2.58152 4.55797 2.47717 4.22095 2.47291H4.19702C3.75206 2.46811 3.32332 2.64014 3.00513 2.95121C2.68693 3.26228 2.50527 3.68695 2.5 4.13191ZM11.087 4.86491C10.99 4.8696 10.8929 4.85495 10.8016 4.82183C10.7103 4.78871 10.6265 4.73777 10.5551 4.67198C10.4836 4.60618 10.426 4.52684 10.3855 4.43856C10.345 4.35029 10.3224 4.25483 10.3191 4.15775C10.3158 4.06068 10.3318 3.96392 10.3662 3.87309C10.4006 3.78225 10.4527 3.69916 10.5195 3.62864C10.5863 3.55813 10.6664 3.5016 10.7552 3.46234C10.8441 3.42307 10.9399 3.40183 11.037 3.3999H17.2271C17.3241 3.39521 17.421 3.40985 17.5123 3.44297C17.6036 3.47609 17.6875 3.52703 17.7589 3.59283C17.8304 3.65862 17.8881 3.73797 17.9286 3.82624C17.9691 3.91452 17.9917 4.00997 17.995 4.10705C17.9983 4.20413 17.9823 4.30088 17.9479 4.39172C17.9135 4.48255 17.8614 4.56565 17.7946 4.63616C17.7278 4.70668 17.6476 4.7632 17.5587 4.80247C17.4699 4.84174 17.3741 4.86297 17.277 4.86491H11.087Z" fill="white"/>
</svg>
