<svg width="21" height="21" viewBox="0 0 21 21" fill="none" xmlns="http://www.w3.org/2000/svg">
<path d="M6.3173 18.861L6.2713 18.845C6.26879 18.8439 6.26658 18.8423 6.26484 18.8402C6.2631 18.8381 6.26189 18.8357 6.2613 18.833L5.5783 18.446C5.49082 18.411 5.39753 18.3927 5.30329 18.3921C5.26561 18.3915 5.22801 18.3955 5.19129 18.404C4.48077 18.6595 3.75462 18.8693 3.0173 19.032L2.8823 19.048H2.8413C2.67692 19.0574 2.51247 19.0306 2.35967 18.9692C2.20688 18.9078 2.06949 18.8135 1.9573 18.693C1.74906 18.4325 1.64246 18.1052 1.6573 17.772L1.6773 17.608C1.85726 16.8613 2.08369 16.1265 2.3553 15.408C2.3942 15.2743 2.37875 15.1305 2.3123 15.008L2.12831 14.65C1.33073 13.122 0.941044 11.4139 0.996973 9.69106C1.0529 7.96826 1.55254 6.28902 2.44755 4.81588C3.34256 3.34274 4.60265 2.12557 6.10588 1.28207C7.60911 0.438568 9.30459 -0.00271715 11.0283 0.000999851H11.0673C12.5822 0.0138667 14.0745 0.370524 15.4315 1.04403C16.7885 1.71754 17.975 2.69037 18.9013 3.88912C19.8277 5.08788 20.4698 6.48128 20.7793 7.96432C21.0887 9.44735 21.0575 10.9813 20.6878 12.4505C20.3182 13.9197 19.6198 15.2858 18.6454 16.4458C17.671 17.6058 16.4459 18.5295 15.0626 19.1471C13.6792 19.7648 12.1737 20.0603 10.6595 20.0114C9.14529 19.9626 7.66195 19.5706 6.3213 18.865L6.3173 18.861ZM6.1463 17.171C6.2383 17.215 6.35531 17.278 6.51631 17.371L6.9393 17.614H6.94531L7.23229 17.76C8.71678 18.4764 10.3751 18.7535 12.0119 18.5586C13.6486 18.3637 15.1956 17.705 16.4703 16.66L16.6903 16.473C18.0002 15.3196 18.9288 13.7954 19.3531 12.1024C19.7773 10.4094 19.6772 8.62736 19.0659 6.99252C18.4547 5.35767 17.3612 3.94714 15.9303 2.94772C14.4994 1.94829 12.7986 1.40715 11.0533 1.39602H10.7723C9.31062 1.43394 7.88269 1.84362 6.62322 2.58639C5.36376 3.32916 4.31429 4.38057 3.57382 5.64138C2.83334 6.90219 2.42626 8.33081 2.391 9.79256C2.35574 11.2543 2.69346 12.7009 3.37229 13.996L3.55329 14.349C3.67285 14.5782 3.74557 14.8288 3.76721 15.0863C3.78884 15.3439 3.75896 15.6032 3.6793 15.849C3.42327 16.5293 3.2092 17.2246 3.03829 17.9311L3.1323 17.563L3.5323 17.463C3.8173 17.384 4.0863 17.303 4.3533 17.215L4.7723 17.071C4.94889 17.0225 5.13118 16.998 5.3143 16.998C5.59981 17.0002 5.88214 17.0583 6.1453 17.169L6.1463 17.171ZM14.3563 10.005C14.3563 9.7792 14.4232 9.55847 14.5487 9.37069C14.6741 9.18291 14.8524 9.0365 15.061 8.95004C15.2697 8.86357 15.4992 8.84093 15.7207 8.88491C15.9422 8.92889 16.1457 9.03755 16.3055 9.19717C16.4652 9.35678 16.5741 9.56018 16.6182 9.78164C16.6624 10.0031 16.6399 10.2327 16.5537 10.4414C16.4674 10.6501 16.3212 10.8285 16.1335 10.9541C15.9458 11.0797 15.7251 11.1468 15.4993 11.147C15.1966 11.1467 14.9064 11.0263 14.6924 10.8122C14.4785 10.598 14.3583 10.3077 14.3583 10.005H14.3563ZM9.91529 10.005C9.91529 9.77916 9.98228 9.55837 10.1078 9.37057C10.2333 9.18277 10.4116 9.03641 10.6203 8.94997C10.829 8.86354 11.0586 8.84091 11.2801 8.88497C11.5016 8.92904 11.7051 9.03782 11.8648 9.19753C12.0245 9.35724 12.1333 9.56072 12.1774 9.78225C12.2214 10.0038 12.1988 10.2334 12.1124 10.442C12.0259 10.6507 11.8796 10.8291 11.6918 10.9546C11.504 11.08 11.2832 11.147 11.0573 11.147C10.7544 11.147 10.4639 11.0267 10.2498 10.8125C10.0356 10.5984 9.91529 10.3079 9.91529 10.005ZM5.4723 10.005C5.4723 9.77916 5.53927 9.55837 5.66476 9.37057C5.79024 9.18277 5.9686 9.03641 6.17727 8.94997C6.38594 8.86354 6.61557 8.84091 6.83709 8.88497C7.05862 8.92904 7.2621 9.03782 7.42181 9.19753C7.58152 9.35724 7.69029 9.56072 7.73435 9.78225C7.77842 10.0038 7.7558 10.2334 7.66937 10.442C7.58293 10.6507 7.43656 10.8291 7.24876 10.9546C7.06096 11.08 6.84016 11.147 6.6143 11.147C6.31159 11.1467 6.02138 11.0263 5.80743 10.8122C5.59348 10.598 5.47331 10.3077 5.47331 10.005H5.4723Z" fill="white"/>
</svg>
