<svg width="21" height="19" viewBox="0 0 21 19" fill="none" xmlns="http://www.w3.org/2000/svg">
<path d="M6.80011 19C5.24172 18.9805 3.75465 18.3438 2.66496 17.2296C1.57528 16.1153 0.971895 14.6145 0.987107 13.056V5.94397C0.97163 4.38545 1.57493 2.88444 2.66467 1.77014C3.75442 0.655839 5.24164 0.0192533 6.80011 0H15.1771C16.7372 0.0168878 18.2269 0.652436 19.3187 1.76697C20.4106 2.8815 21.0153 4.38382 21.0001 5.94397V13.057C21.015 14.616 20.411 16.1172 19.3205 17.2313C18.23 18.3455 16.742 18.9815 15.1831 19H6.80011ZM2.4411 5.94397V13.057C2.42963 14.2258 2.88222 15.3514 3.69959 16.187C4.51695 17.0225 5.63234 17.4997 6.8011 17.514H15.1781C16.3468 17.4995 17.462 17.0222 18.2793 16.1867C19.0966 15.3512 19.5493 14.2257 19.5381 13.057V12.78H16.3381C15.4609 12.7621 14.6243 12.4071 14.002 11.7886C13.3797 11.1702 13.0194 10.3359 12.996 9.4588C12.9726 8.58175 13.2878 7.72938 13.8762 7.07861C14.4647 6.42785 15.2811 6.02868 16.1561 5.96399L16.3391 5.95898H19.5391V5.94397C19.5506 4.77517 19.098 3.64957 18.2806 2.81403C17.4633 1.97848 16.3479 1.50124 15.1791 1.487H6.80011C5.63239 1.50282 4.51852 1.98073 3.70245 2.8161C2.88638 3.65148 2.43462 4.7762 2.44611 5.94397H2.4411ZM14.4591 9.36902C14.4543 9.84772 14.6296 10.3107 14.9502 10.6662C15.2709 11.0217 15.7134 11.2436 16.1901 11.288L16.3371 11.293H19.5371V7.44598H16.3371C16.0876 7.44886 15.8411 7.50085 15.6117 7.599C15.3822 7.69715 15.1744 7.83953 15 8.01801C14.8256 8.19648 14.6881 8.40759 14.5953 8.63922C14.5025 8.87085 14.4562 9.11846 14.4591 9.36798V9.36902ZM16.4821 10.052C16.2958 10.0484 16.1175 9.97498 15.9826 9.84637C15.8477 9.71777 15.7659 9.54333 15.7533 9.35736C15.7408 9.1714 15.7984 8.98743 15.9148 8.84186C16.0312 8.69629 16.1979 8.59964 16.3821 8.57098L16.4821 8.565H16.7821C16.9693 8.56714 17.1488 8.63972 17.2848 8.76831C17.4208 8.8969 17.5033 9.07204 17.5159 9.25879C17.5285 9.44554 17.4703 9.63016 17.3528 9.77588C17.2354 9.9216 17.0673 10.0177 16.8821 10.045L16.7821 10.052H16.4821ZM6.11011 5.98401C5.92295 5.98187 5.74346 5.90929 5.60745 5.7807C5.47144 5.65211 5.3889 5.47697 5.37628 5.29022C5.36366 5.10347 5.42189 4.91879 5.53937 4.77307C5.65684 4.62735 5.82493 4.53132 6.0101 4.50403L6.11011 4.49701H11.3431C11.5303 4.49914 11.7098 4.57173 11.8458 4.70032C11.9818 4.82891 12.0643 5.00405 12.0769 5.1908C12.0896 5.37754 12.0313 5.56217 11.9138 5.70789C11.7964 5.8536 11.6283 5.9497 11.4431 5.97699L11.3431 5.98401H6.11011Z" fill="white"/>
</svg>
