<svg width="21" height="23" viewBox="0 0 21 23" fill="none" xmlns="http://www.w3.org/2000/svg">
<path d="M0.185057 17.0451C0.208838 17.0126 0.234907 16.9818 0.26306 16.9531L4.86307 12.3801C5.01313 12.2277 5.21558 12.1383 5.42926 12.1299C5.64294 12.1215 5.8518 12.1948 6.01333 12.335C6.17487 12.4751 6.27696 12.6715 6.29883 12.8842C6.3207 13.097 6.2607 13.31 6.13106 13.4801L6.04906 13.574L2.89706 16.7141H16.1451C16.3578 16.715 16.5622 16.7965 16.7172 16.9421C16.8722 17.0877 16.9663 17.2867 16.9805 17.4989C16.9947 17.7111 16.928 17.9208 16.7937 18.0858C16.6595 18.2508 16.4677 18.3588 16.2571 18.3881L16.1451 18.3961H2.90005L6.05105 21.5361C6.20416 21.6853 6.29469 21.8872 6.30421 22.1008C6.31374 22.3144 6.24154 22.5237 6.10232 22.6859C5.96311 22.8482 5.76732 22.9513 5.55476 22.9744C5.3422 22.9974 5.12883 22.9387 4.95805 22.8101L4.86406 22.7281L0.264067 18.1551C0.123039 18.0132 0.0374375 17.8254 0.0227648 17.6259C0.00809209 17.4263 0.0653143 17.2281 0.184065 17.0671L0.185057 17.0451ZM3.79506 5.57405L3.90706 5.56709H17.1551L14.0001 2.42805C13.856 2.2855 13.7683 2.09581 13.7528 1.89375C13.7374 1.69169 13.7953 1.49084 13.9161 1.32807L13.9981 1.23805C14.1408 1.09439 14.3305 1.00689 14.5324 0.991465C14.7344 0.976044 14.9351 1.03375 15.0981 1.15406L15.1981 1.23609L19.7931 5.81306C19.889 5.90659 19.961 6.02183 20.0031 6.14906V6.16609V6.50209V6.60206C19.9769 6.71309 19.9282 6.81758 19.8601 6.90907C19.8378 6.93823 19.8138 6.96596 19.7881 6.99208L19.7811 6.99909L15.1811 11.5721C15.0315 11.7264 14.8284 11.8176 14.6137 11.8269C14.3989 11.8362 14.1888 11.763 14.0264 11.6222C13.8639 11.4814 13.7616 11.2838 13.7403 11.0699C13.7191 10.856 13.7805 10.6421 13.9121 10.4721L13.9941 10.3721L17.1481 7.23207H3.90005C3.68736 7.23114 3.48293 7.14967 3.32791 7.00404C3.17289 6.85841 3.0788 6.65944 3.0646 6.44721C3.05041 6.23499 3.11715 6.02528 3.25139 5.8603C3.38563 5.69532 3.57738 5.58731 3.78805 5.55805L3.79506 5.57405Z" fill="white"/>
</svg>
