<svg width="14" height="17" viewBox="0 0 14 17" fill="none" xmlns="http://www.w3.org/2000/svg">
<path d="M7.00003 17.0001C6.78373 16.9906 6.57503 16.9176 6.40006 16.79C4.63314 15.6156 3.08854 14.137 1.83805 12.423C0.66669 10.8842 0.0221835 9.00892 3.43711e-05 7.07507C-0.00286357 6.14714 0.177518 5.22773 0.530857 4.36969C0.884197 3.51165 1.40356 2.73188 2.05906 2.07507C2.70299 1.41978 3.47106 0.899386 4.31839 0.544312C5.16573 0.189239 6.07533 0.00661584 6.99405 0.00708096C8.85989 0.0168713 10.6456 0.766633 11.9591 2.0918C13.2727 3.41696 14.0067 5.20922 14 7.07507C13.9782 9.00835 13.3345 10.8832 12.164 12.4221C10.9079 14.1314 9.36387 15.6091 7.60105 16.7891C7.42693 16.9191 7.2172 16.9927 7.00003 17.0001ZM6.99405 4.91705C6.3728 4.92679 5.78081 5.18289 5.34836 5.62903C4.91592 6.07517 4.6784 6.67483 4.68802 7.29608C4.68614 7.60362 4.74488 7.90847 4.86087 8.1933C4.97686 8.47813 5.14785 8.73733 5.36405 8.95606C5.57965 9.17487 5.83733 9.34776 6.12156 9.4643C6.40578 9.58083 6.71064 9.63858 7.0178 9.6341C7.32495 9.62961 7.62803 9.56295 7.90873 9.43817C8.18942 9.31339 8.44192 9.1331 8.65104 8.90808C9.06102 8.46996 9.29494 7.89598 9.30802 7.29608C9.31234 6.6745 9.07161 6.07622 8.63791 5.63092C8.20422 5.18562 7.61254 4.92914 6.99106 4.91705H6.99405Z" fill="#F76C68"/>
</svg>
