<svg width="19" height="15" viewBox="0 0 19 15" fill="none" xmlns="http://www.w3.org/2000/svg">
<path d="M15.5412 12.558C15.5435 12.5107 15.5362 12.4635 15.5196 12.4191C15.503 12.3747 15.4776 12.3341 15.4448 12.2999C15.4121 12.2656 15.3727 12.2384 15.3291 12.2198C15.2855 12.2013 15.2385 12.1919 15.1912 12.1921C15.1182 12.1889 15.0459 12.2076 14.9836 12.2458C14.9214 12.284 14.872 12.34 14.8419 12.4066C14.8117 12.4731 14.8021 12.5471 14.8144 12.6191C14.8267 12.6912 14.8602 12.7579 14.9106 12.8107C14.9611 12.8635 15.0263 12.8999 15.0977 12.9154C15.1691 12.9309 15.2435 12.9246 15.3113 12.8975C15.3791 12.8703 15.4372 12.8234 15.4782 12.7629C15.5192 12.7025 15.5411 12.6311 15.5412 12.558ZM5.82819 12.1921C5.75467 12.1869 5.68131 12.2039 5.61761 12.241C5.55392 12.278 5.50285 12.3334 5.47107 12.3999C5.43929 12.4664 5.42823 12.5409 5.43939 12.6138C5.45056 12.6866 5.48345 12.7544 5.53369 12.8083C5.58393 12.8622 5.64919 12.8998 5.72107 12.9161C5.79295 12.9324 5.86807 12.9266 5.93665 12.8996C6.00522 12.8726 6.06406 12.8256 6.10553 12.7646C6.147 12.7037 6.16921 12.6317 6.16919 12.558C6.1719 12.5114 6.16509 12.4646 6.14923 12.4207C6.13337 12.3767 6.10877 12.3364 6.0769 12.3022C6.04503 12.268 6.00656 12.2405 5.96381 12.2216C5.92106 12.2027 5.87493 12.1927 5.82819 12.1921ZM9.50018 12.183C9.42458 12.1803 9.35091 12.2072 9.29486 12.2581C9.23881 12.3089 9.20484 12.3796 9.2002 12.4551H9.80017C9.79629 12.3793 9.76258 12.3081 9.70636 12.2571C9.65014 12.2062 9.57599 12.1795 9.50018 12.183ZM12.8692 12.1921C12.7962 12.1889 12.7239 12.2076 12.6617 12.2458C12.5994 12.284 12.55 12.34 12.5198 12.4066C12.4897 12.4731 12.4801 12.5471 12.4924 12.6191C12.5046 12.6912 12.5382 12.7579 12.5887 12.8107C12.6392 12.8635 12.7043 12.8999 12.7757 12.9154C12.8471 12.9309 12.9215 12.9246 12.9893 12.8975C13.0571 12.8703 13.1152 12.8234 13.1562 12.7629C13.1972 12.7025 13.2191 12.6311 13.2192 12.558C13.2219 12.5106 13.2149 12.4632 13.1985 12.4186C13.1821 12.374 13.1567 12.3332 13.1238 12.2989C13.091 12.2646 13.0514 12.2374 13.0076 12.219C12.9638 12.2006 12.9167 12.1914 12.8692 12.1921ZM16.1782 13.0081C16.1692 12.9921 16.1722 12.9801 16.1622 12.9741C16.1522 12.9681 16.1432 12.9681 16.1282 12.9581C16.1132 12.9481 16.1092 12.949 16.0942 12.949C16.0822 12.9483 16.0703 12.9515 16.0602 12.9581C16.0512 12.9623 16.0427 12.9677 16.0352 12.9741C16.0263 12.9833 16.0206 12.9953 16.0192 13.0081C16.0102 13.0171 16.0102 13.0271 16.0102 13.0421C16.0095 13.0541 16.0127 13.0659 16.0192 13.076C16.0192 13.085 16.0252 13.0921 16.0352 13.1011C16.0452 13.1101 16.0512 13.1171 16.0602 13.1171C16.0704 13.1233 16.0822 13.1264 16.0942 13.126C16.1132 13.126 16.1192 13.1261 16.1282 13.1171C16.1347 13.1173 16.1412 13.1159 16.1471 13.1132C16.153 13.1104 16.1582 13.1063 16.1622 13.1011C16.1682 13.0921 16.1682 13.085 16.1782 13.076C16.1882 13.067 16.1872 13.0511 16.1872 13.0421C16.1872 13.0331 16.1782 13.0171 16.1782 13.0081ZM16.1092 13.0521L16.1432 13.0931H16.1182L16.0842 13.0491H16.0752V13.0931H16.0502V12.9841H16.1002C16.1192 12.9841 16.1252 12.993 16.1342 12.993C16.1402 13 16.1436 13.0089 16.1436 13.0181C16.1436 13.0273 16.1402 13.0362 16.1342 13.0431C16.1252 13.0421 16.1252 13.0521 16.1102 13.0521H16.1092ZM18.4502 2.26807C18.4502 1.87024 18.2922 1.4887 18.0109 1.2074C17.7296 0.926093 17.348 0.768066 16.9502 0.768066H1.9502C1.55237 0.768066 1.17083 0.926093 0.889526 1.2074C0.608222 1.4887 0.450195 1.87024 0.450195 2.26807V13.2681C0.450195 13.6659 0.608222 14.0474 0.889526 14.3287C1.17083 14.61 1.55237 14.7681 1.9502 14.7681H16.9502C17.348 14.7681 17.7296 14.61 18.0109 14.3287C18.2922 14.0474 18.4502 13.6659 18.4502 13.2681V2.26807ZM2.4502 6.63104C2.45089 5.84904 2.66356 5.0819 3.06555 4.41113C3.46755 3.74037 4.0438 3.1911 4.73309 2.82178C5.42239 2.45246 6.19891 2.27687 6.98004 2.31372C7.76117 2.35057 8.51773 2.59849 9.16919 3.03107C8.63734 3.46822 8.20897 4.01779 7.91486 4.64026C7.62074 5.26272 7.46814 5.94259 7.46814 6.63104C7.46814 7.3195 7.62074 7.99942 7.91486 8.62189C8.20897 9.24435 8.63734 9.79393 9.16919 10.2311C8.5173 10.6639 7.76023 10.9119 6.97858 10.9485C6.19692 10.9851 5.41996 10.809 4.73047 10.439C4.04098 10.0689 3.46479 9.51879 3.06323 8.84717C2.66168 8.17555 2.44981 7.40757 2.4502 6.62506V6.63104ZM9.4502 10.0311C8.93578 9.62613 8.51993 9.10975 8.23401 8.52081C7.94809 7.93188 7.79956 7.28572 7.79956 6.63104C7.79956 5.97637 7.94809 5.33027 8.23401 4.74133C8.51993 4.1524 8.93578 3.63601 9.4502 3.23108C9.96443 3.63602 10.3801 4.15231 10.6659 4.74115C10.9517 5.32999 11.1002 5.97602 11.1002 6.63055C11.1002 7.28509 10.9517 7.93112 10.6659 8.51996C10.3801 9.1088 9.96443 9.62515 9.4502 10.0301V10.0311ZM5.00018 12.4141H5.00616V13.1331H4.75018C4.75018 12.5021 4.8122 12.1891 4.4942 12.1891C4.1352 12.1891 4.2132 12.5611 4.2132 13.1331H3.96619C3.96619 12.5081 4.02921 12.1891 3.71021 12.1891C3.35121 12.1891 3.4292 12.5421 3.4292 13.1331H3.17316V11.9861H3.4292V12.123C3.46658 12.0702 3.5162 12.0272 3.57385 11.9978C3.63151 11.9684 3.69546 11.9533 3.76019 11.954C3.83593 11.9493 3.91151 11.9654 3.9787 12.0007C4.04589 12.0359 4.1021 12.089 4.14117 12.1541C4.18441 12.0885 4.24417 12.0355 4.31439 12.0004C4.38461 11.9653 4.46283 11.9493 4.5412 11.954C4.60236 11.951 4.66346 11.9609 4.72058 11.983C4.7777 12.005 4.82955 12.0388 4.8728 12.0822C4.91605 12.1255 4.94974 12.1774 4.97168 12.2346C4.99362 12.2918 5.00333 12.3529 5.00018 12.4141ZM6.40021 11.9861V13.136H6.1532V12.9921C6.11047 13.0478 6.05479 13.0923 5.99103 13.1218C5.92727 13.1512 5.85731 13.1647 5.78717 13.1611C5.62724 13.1611 5.47386 13.0975 5.36078 12.9844C5.24769 12.8714 5.1842 12.718 5.1842 12.558C5.1842 12.3981 5.24769 12.2447 5.36078 12.1317C5.47386 12.0186 5.62724 11.9551 5.78717 11.9551C5.85712 11.9528 5.92664 11.9669 5.99017 11.9963C6.05371 12.0256 6.10953 12.0694 6.1532 12.1241V11.9871L6.40021 11.9861ZM7.6662 12.7861C7.6662 13.2081 6.99716 13.2581 6.64716 13.0201L6.75616 12.8201C6.98116 12.9761 7.4032 12.992 7.4032 12.795C7.4032 12.598 6.68719 12.773 6.68719 12.326C6.68719 11.8791 7.33716 11.8791 7.63116 12.0701L7.53119 12.2701C7.32519 12.1541 6.95319 12.1261 6.95319 12.3041C6.95619 12.5301 7.67218 12.3171 7.67218 12.7861H7.6662ZM8.77216 13.0771C8.60616 13.1861 8.06616 13.2861 8.06616 12.7361V12.2141H7.82819V11.9861H8.06616V11.636H8.3222V11.9861H8.7312V12.217H8.3222V12.7361C8.3222 13.0021 8.58419 12.9301 8.70319 12.8641L8.77216 13.0771ZM9.18817 12.6581C9.26017 12.9921 9.62919 13.011 9.87219 12.811L10.0002 13.0001C9.91248 13.0848 9.80178 13.142 9.68188 13.1645C9.56199 13.187 9.43814 13.1737 9.32568 13.1265C9.21323 13.0792 9.11714 12.9999 9.04932 12.8985C8.98149 12.7971 8.94492 12.6781 8.94415 12.5561C8.93904 12.4786 8.95006 12.4009 8.97644 12.3278C9.00282 12.2548 9.04403 12.1879 9.09747 12.1316C9.15091 12.0752 9.21544 12.0306 9.28699 12.0004C9.35853 11.9702 9.43553 11.9551 9.51318 11.9561C9.82618 11.9561 10.0572 12.156 10.0572 12.662L9.18817 12.6581ZM11.0352 11.9861L10.9602 12.2241C10.9176 12.1962 10.8679 12.1815 10.817 12.1815C10.7662 12.1816 10.7164 12.1965 10.674 12.2244C10.6315 12.2524 10.5981 12.2921 10.5779 12.3387C10.5577 12.3854 10.5515 12.437 10.5602 12.4871V13.134H10.3042V11.9871H10.5602V12.1241C10.608 12.0445 10.6842 11.986 10.7735 11.9604C10.8628 11.9348 10.9584 11.944 11.0412 11.9861H11.0352ZM11.3662 12.558C11.3662 12.908 11.7252 13.0301 12.0132 12.8271L12.1322 13.027C12.0425 13.1045 11.9323 13.1547 11.8149 13.1714C11.6976 13.1881 11.5778 13.1707 11.47 13.1214C11.3622 13.072 11.2708 12.9928 11.2067 12.893C11.1427 12.7932 11.1086 12.6771 11.1086 12.5585C11.1086 12.44 11.1427 12.3239 11.2067 12.2241C11.2708 12.1243 11.3622 12.0451 11.47 11.9957C11.5778 11.9464 11.6976 11.929 11.8149 11.9457C11.9323 11.9625 12.0425 12.0126 12.1322 12.0901L12.0132 12.29C11.7352 12.086 11.3722 12.2 11.3722 12.558H11.3662ZM13.4502 11.9861V13.136H13.2002V12.9921C13.1174 13.0618 13.0164 13.1063 12.9092 13.1206C12.8019 13.1349 12.6928 13.1182 12.5947 13.0726C12.4966 13.0269 12.4136 12.9542 12.3554 12.863C12.2972 12.7717 12.2664 12.6658 12.2664 12.5576C12.2664 12.4494 12.2972 12.3434 12.3554 12.2522C12.4136 12.161 12.4966 12.0882 12.5947 12.0426C12.6928 11.997 12.8019 11.9802 12.9092 11.9945C13.0164 12.0088 13.1174 12.0534 13.2002 12.123V11.9861H13.4502ZM14.5032 11.9861L14.4282 12.2241C14.3855 12.1967 14.3359 12.1823 14.2852 12.1826C14.2346 12.1829 14.1851 12.1978 14.1428 12.2256C14.1004 12.2535 14.0671 12.293 14.0468 12.3394C14.0264 12.3858 14.02 12.4371 14.0282 12.4871V13.134H13.7812V11.9871H14.0282V12.1241C14.0775 12.0458 14.1539 11.9885 14.2428 11.963C14.3317 11.9376 14.4269 11.9458 14.5102 11.9861H14.5032ZM15.7622 11.5201V13.136H15.5152V12.9921C15.4324 13.0618 15.3314 13.1063 15.2242 13.1206C15.1169 13.1349 15.0078 13.1182 14.9097 13.0726C14.8116 13.0269 14.7286 12.9542 14.6704 12.863C14.6122 12.7717 14.5814 12.6658 14.5814 12.5576C14.5814 12.4494 14.6122 12.3434 14.6704 12.2522C14.7286 12.161 14.8116 12.0882 14.9097 12.0426C15.0078 11.997 15.1169 11.9802 15.2242 11.9945C15.3314 12.0088 15.4324 12.0534 15.5152 12.123V11.5231L15.7622 11.5201ZM15.9992 9.17303H15.9402V9.14807H16.0842V9.17303H16.0252V9.31708H16.0002L15.9992 9.17303ZM16.2052 13.0421C16.2057 13.0573 16.2022 13.0725 16.1952 13.0861C16.1862 13.0951 16.1792 13.1111 16.1702 13.1201C16.1612 13.1291 16.1452 13.1361 16.1362 13.1451C16.1206 13.1523 16.1033 13.1554 16.0862 13.1541C16.071 13.1551 16.0558 13.152 16.0422 13.1451C16.0293 13.139 16.0178 13.1305 16.0082 13.1201C16.0017 13.1166 15.9961 13.1118 15.9918 13.1059C15.9875 13.1 15.9845 13.0932 15.9832 13.0861C15.9765 13.0724 15.9734 13.0572 15.9742 13.0421C15.9728 13.0249 15.9759 13.0077 15.9832 12.9921C15.9845 12.9849 15.9875 12.9781 15.9918 12.9722C15.9961 12.9663 16.0017 12.9615 16.0082 12.9581C16.0184 12.9483 16.0298 12.9399 16.0422 12.933C16.057 12.931 16.0717 12.928 16.0862 12.9241C16.1022 12.9241 16.1202 12.933 16.1362 12.933C16.1522 12.933 16.1612 12.9491 16.1702 12.9581C16.1792 12.9671 16.1862 12.9831 16.1952 12.9921C16.2059 13.0067 16.2121 13.024 16.2132 13.0421H16.2052ZM16.3052 9.14209V9.31104H16.2712V9.18304L16.2272 9.29205H16.2002L16.1502 9.18304V9.31104H16.1252V9.14209H16.1692L16.2192 9.25104L16.2692 9.14209H16.3052ZM16.4432 6.62604C16.4425 7.40804 16.2298 8.17524 15.8278 8.84601C15.4258 9.51677 14.8496 10.066 14.1603 10.4354C13.471 10.8047 12.6945 10.9803 11.9133 10.9434C11.1322 10.9066 10.3756 10.6587 9.72418 10.2261C10.256 9.78892 10.6844 9.23935 10.9785 8.61688C11.2726 7.99442 11.4252 7.31449 11.4252 6.62604C11.4252 5.93758 11.2726 5.25772 10.9785 4.63525C10.6844 4.01279 10.256 3.46321 9.72418 3.02606C10.3756 2.59348 11.1322 2.34557 11.9133 2.30872C12.6945 2.27186 13.471 2.44745 14.1603 2.81677C14.8496 3.18609 15.4258 3.73536 15.8278 4.40613C16.2298 5.07689 16.4425 5.84404 16.4432 6.62604Z" fill="#F76C68"/>
</svg>
