<svg width="19" height="17" viewBox="0 0 19 17" fill="none" xmlns="http://www.w3.org/2000/svg">
<path d="M13.9928 16.992C13.3512 16.9701 12.722 16.8091 12.1488 16.52C8.49482 14.998 2.91382 9.53994 1.43782 5.91994C1.13409 5.42538 0.972482 4.85675 0.970718 4.27638C0.968954 3.69601 1.1271 3.12635 1.42781 2.62996C1.66881 2.23796 3.04784 0.601969 4.28084 0.652969C4.64973 0.701408 4.98971 0.878471 5.24086 1.15297C6.00635 1.93723 6.65282 2.82937 7.1598 3.80098C7.22275 4.28929 7.0937 4.78291 6.79982 5.17793C6.56882 5.57793 5.96083 6.32798 6.11983 6.76698C7.14169 9.04546 8.99696 10.8463 11.3048 11.7999C11.7358 11.9569 12.4888 11.3489 12.8848 11.1199C13.2788 10.8255 13.7721 10.6964 14.2598 10.76C15.2343 11.2772 16.1283 11.9334 16.9138 12.708C17.1874 12.957 17.3644 13.2944 17.4138 13.661C17.4598 14.922 15.7449 16.361 15.4339 16.536C15.0253 16.8277 14.5358 16.9846 14.0338 16.9849L13.9928 16.992ZM13.6098 6.73195C13.4987 6.15346 13.2166 5.6216 12.7999 5.20515C12.3833 4.78871 11.8514 4.50683 11.2728 4.39595C11.1022 4.34828 10.9546 4.24032 10.8575 4.09212C10.7604 3.94391 10.7203 3.76553 10.7448 3.59004C10.7692 3.41455 10.8564 3.25389 10.9903 3.13783C11.1242 3.02178 11.2957 2.9582 11.4729 2.95894C11.5003 2.95881 11.5276 2.96048 11.5548 2.96394C12.4194 3.12985 13.2144 3.55132 13.8369 4.17384C14.4595 4.79637 14.8809 5.59133 15.0468 6.45595C15.0833 6.64616 15.0432 6.84308 14.9351 7.0038C14.827 7.16451 14.6597 7.27602 14.4698 7.31398L14.3298 7.32698C14.1591 7.32743 13.9936 7.26821 13.862 7.15956C13.7303 7.05091 13.6408 6.89963 13.6088 6.73195H13.6098ZM16.5518 6.67293C16.4078 5.33888 15.8118 4.09426 14.8628 3.14564C13.9138 2.19703 12.669 1.6015 11.3349 1.45796C11.1916 1.44047 11.0567 1.38107 10.9471 1.28725C10.8375 1.19342 10.758 1.06931 10.7186 0.930496C10.6792 0.791681 10.6816 0.644342 10.7256 0.506912C10.7696 0.369481 10.8532 0.248109 10.9658 0.157974C11.0898 0.0568691 11.2449 0.00174673 11.4049 0.00196787C11.4363 0.00176018 11.4677 0.00374658 11.4989 0.00794931C13.1623 0.187709 14.7141 0.931227 15.8966 2.11494C17.079 3.29866 17.8209 4.85133 17.9989 6.51497C18.0101 6.60999 18.0024 6.70632 17.9762 6.79835C17.95 6.89039 17.9059 6.9763 17.8463 7.05116C17.7867 7.12602 17.7128 7.18831 17.6289 7.23445C17.5451 7.28059 17.4529 7.30966 17.3578 7.31996L17.2718 7.32497C17.0927 7.32381 16.9203 7.25683 16.7873 7.13679C16.6544 7.01676 16.5702 6.85203 16.5509 6.67396L16.5518 6.67293Z" fill="#F76C68"/>
</svg>
