<svg width="15" height="14" viewBox="0 0 15 14" fill="none" xmlns="http://www.w3.org/2000/svg">
<path d="M7.23091 13.925L7.04695 13.816C5.42594 12.8357 3.91697 11.6812 2.54695 10.373C1.542 9.39465 0.777607 8.1966 0.313921 6.87296C-0.141656 5.55063 -0.0881532 4.10599 0.463945 2.82096C0.734934 2.20665 1.13462 1.65767 1.63594 1.21103C2.13726 0.764398 2.72856 0.430518 3.36995 0.231969C4.01836 0.0271979 4.70177 -0.04293 5.37825 0.0258534C6.05474 0.0946367 6.70999 0.300905 7.30391 0.631993L7.50398 0.74796L7.70394 0.630956C8.84068 -0.000250697 10.1786 -0.163808 11.4339 0.174962L11.634 0.232946C12.2759 0.432097 12.8677 0.766652 13.3693 1.21396C13.871 1.66128 14.2708 2.21096 14.5419 2.82596C15.0944 4.11371 15.1479 5.56096 14.692 6.88596C14.224 8.2039 13.4613 9.39756 12.462 10.376C11.0915 11.6819 9.58257 12.8344 7.96199 13.813L7.79 13.918C7.70361 13.9693 7.60496 13.9964 7.50447 13.9964C7.40399 13.9964 7.30534 13.9693 7.21895 13.918L7.23091 13.925ZM3.70894 1.26096C3.20846 1.41676 2.74775 1.67933 2.3586 2.03049C1.96945 2.38166 1.66112 2.81305 1.45491 3.29496C1.02479 4.32637 0.989223 5.48001 1.35494 6.53598C1.76625 7.69484 2.43619 8.74476 3.31392 9.60599C4.62346 10.8545 6.06537 11.9563 7.61397 12.892L7.50594 12.826L7.85591 12.609C9.07804 11.8336 10.2301 10.9529 11.2989 9.97696L11.6989 9.60898C12.5768 8.75056 13.2468 7.70291 13.6579 6.54599C14.0246 5.48813 13.989 4.33228 13.5579 3.29899C13.3516 2.81609 13.0429 2.38368 12.6533 2.03165C12.2636 1.67963 11.8023 1.41637 11.301 1.25998C10.7185 1.07614 10.1007 1.03238 9.49813 1.1323C8.89551 1.23221 8.32499 1.473 7.83296 1.835C7.73918 1.90361 7.62629 1.94116 7.51009 1.94242C7.39389 1.94367 7.28026 1.90853 7.18501 1.84195L7.03499 1.74198C6.55152 1.41762 6.00119 1.20633 5.42488 1.12375C4.84857 1.04118 4.26111 1.08944 3.70601 1.26499L3.70894 1.26096ZM11.0959 5.23197C11.0708 4.9428 10.9604 4.66761 10.7786 4.44132C10.5969 4.21503 10.3519 4.04785 10.0749 3.96097C10.0062 3.94228 9.94198 3.91008 9.88582 3.86631C9.82966 3.82253 9.78278 3.76804 9.74788 3.70597C9.71298 3.6439 9.69067 3.57553 9.68245 3.5048C9.67423 3.43406 9.68017 3.3624 9.69991 3.29398C9.74182 3.15581 9.83655 3.03968 9.96346 2.9708C10.0904 2.90192 10.2393 2.88586 10.378 2.926L10.4079 2.93497C10.8906 3.08487 11.3177 3.3751 11.6347 3.76871C11.9517 4.16232 12.1443 4.64148 12.1879 5.14499C12.1933 5.21597 12.1846 5.28728 12.1623 5.35489C12.1401 5.42251 12.1047 5.48509 12.0583 5.53904C12.0119 5.59299 11.9552 5.63727 11.8917 5.66935C11.8281 5.70142 11.7589 5.72067 11.6879 5.72599H11.6409C11.5054 5.72581 11.3749 5.67508 11.2749 5.58371C11.1748 5.49235 11.1124 5.3669 11.0999 5.23197H11.0959Z" fill="#656B72"/>
</svg>
