<svg width="21" height="20" viewBox="0 0 21 20" fill="none" xmlns="http://www.w3.org/2000/svg">
<path d="M15.4661 19.9919C14.6738 19.9695 13.8959 19.775 13.1862 19.4219C10.4814 18.0829 8.03472 16.276 5.95916 14.0849C3.75734 12.0311 1.95112 9.59073 0.630179 6.88495L0.530203 6.64594C-0.151797 5.02893 -0.113863 3.68995 0.637137 2.66995C1.29414 1.58195 3.10317 0.00292969 4.44317 0.00292969H4.54314C5.07717 0.0665557 5.57068 0.319538 5.93413 0.715942C6.97842 1.7911 7.85764 3.01505 8.54314 4.34793C8.60382 4.68084 8.59422 5.02277 8.51482 5.35172C8.43543 5.68066 8.28806 5.98935 8.0822 6.25793L7.97222 6.45193C7.77222 6.82093 7.73117 6.98092 7.79717 7.16592C8.24463 8.31294 8.92437 9.35507 9.79375 10.2269C10.6631 11.0987 11.7034 11.7813 12.8492 12.2319C12.9095 12.255 12.9735 12.2672 13.0381 12.2679C13.2858 12.2348 13.5213 12.1402 13.7232 11.993L13.9711 11.8519C14.3481 11.6082 14.7837 11.4701 15.2322 11.4519C15.3876 11.4533 15.5423 11.4707 15.6941 11.5039C17.0266 12.1904 18.2499 13.0707 19.3241 14.1159C19.7298 14.4874 19.9849 14.9948 20.0412 15.5419C20.0872 16.8579 18.4851 18.7789 17.4231 19.3829C16.852 19.7885 16.1666 20.0018 15.4661 19.9919ZM4.42412 1.46094H4.34917C3.33052 1.86009 2.45821 2.56107 1.84917 3.46994L1.77117 3.58594C1.57759 4.01874 1.49456 4.49284 1.52947 4.96567C1.56438 5.4385 1.71608 5.89527 1.97112 6.29495L2.07122 6.53894C3.3644 9.02629 5.07491 11.2732 7.12823 13.1819C9.04183 15.1866 11.2883 16.8445 13.7681 18.0819L13.9802 18.1759C14.4359 18.3866 14.9294 18.5036 15.4312 18.5199C15.8613 18.5261 16.2819 18.3939 16.6312 18.1429L16.6812 18.1109C17.0733 17.8047 17.4344 17.4607 17.7592 17.084C18.1735 16.6884 18.4589 16.1772 18.5782 15.6169C18.5329 15.4253 18.4277 15.253 18.2781 15.1249C17.3871 14.3042 16.422 13.5677 15.3952 12.9249C15.3541 12.9158 15.3122 12.9112 15.2702 12.9109C14.9949 12.9492 14.7337 13.0558 14.5102 13.2209L14.2642 13.3589C13.9002 13.585 13.4843 13.7141 13.0562 13.7339C12.8047 13.7297 12.556 13.6813 12.3212 13.5909C10.9875 13.0656 9.77658 12.2703 8.76458 11.255C7.75258 10.2398 6.96118 9.02639 6.44011 7.69095C6.31829 7.3398 6.28618 6.96376 6.34661 6.59702C6.40703 6.23028 6.55815 5.88445 6.78618 5.59094L6.89812 5.39093C7.10912 5.00893 7.15822 4.84193 7.11822 4.64493C6.475 3.61807 5.73849 2.65266 4.91814 1.76093C4.78934 1.61121 4.61637 1.50619 4.42412 1.46094Z" fill="white"/>
</svg>
