<svg width="45" height="45" viewBox="0 0 45 45" fill="none" xmlns="http://www.w3.org/2000/svg">
<path opacity="0.8" d="M22.5 45C34.9264 45 45 34.9264 45 22.5C45 10.0736 34.9264 0 22.5 0C10.0736 0 0 10.0736 0 22.5C0 34.9264 10.0736 45 22.5 45Z" fill="url(#paint0_linear)"/>
<path d="M19 28.2821V16.7331C19 16.1961 19.435 15.7971 19.865 16.1111C20.209 16.3631 27.093 21.4401 27.681 21.8741C27.7711 21.9516 27.8433 22.0475 27.8928 22.1555C27.9424 22.2634 27.968 22.3808 27.968 22.4996C27.968 22.6184 27.9424 22.7358 27.8928 22.8437C27.8433 22.9517 27.7711 23.0476 27.681 23.1251C27.258 23.4431 20.348 28.5471 19.847 28.9011C19.48 29.1601 19 28.8731 19 28.2821Z" fill="white"/>
<defs>
<linearGradient id="paint0_linear" x1="45" y1="22.905" x2="2.67317e-06" y2="22.095" gradientUnits="userSpaceOnUse">
<stop stop-color="#FC836A"/>
<stop offset="0.43" stop-color="#FA7869"/>
<stop offset="1" stop-color="#F76C68"/>
</linearGradient>
</defs>
</svg>
