<svg width="18" height="20" viewBox="0 0 18 20" fill="none" xmlns="http://www.w3.org/2000/svg">
<path d="M5.85785 18.993C5.13222 19.0637 4.39991 18.975 3.71212 18.7331C3.02432 18.4913 2.39763 18.1022 1.87585 17.593C1.45318 16.9952 1.16458 16.3131 1.02979 15.5934C0.895003 14.8737 0.917195 14.1334 1.09485 13.423L1.77485 8.13905C1.91276 7.24274 2.33316 6.41383 2.97485 5.77303C3.54155 5.22956 4.29769 4.92826 5.08285 4.93304C5.18829 3.84462 5.69523 2.83447 6.50487 2.09946C7.31452 1.36446 8.36885 0.957275 9.46235 0.957275C10.5559 0.957275 11.6102 1.36446 12.4198 2.09946C13.2295 2.83447 13.7364 3.84462 13.8419 4.93304H13.8999C15.5089 4.93304 16.7738 6.17503 17.2108 8.17403L17.9109 13.635C18.0353 14.3167 18.0131 15.0171 17.8459 15.6895C17.6786 16.362 17.3701 16.9911 16.9409 17.535C16.441 18.0404 15.8384 18.4324 15.1737 18.6845C14.5091 18.9365 13.7981 19.0428 13.0888 18.996L5.85785 18.993ZM3.05785 8.33904L2.38185 13.601C2.23593 14.1298 2.20397 14.6835 2.2881 15.2255C2.37223 15.7675 2.57052 16.2854 2.86985 16.745C3.26925 17.11 3.74338 17.3835 4.25924 17.5465C4.77509 17.7095 5.32028 17.7582 5.85685 17.689H13.0999C13.6293 17.7371 14.1628 17.6687 14.663 17.4885C15.1631 17.3083 15.6177 17.0207 15.9949 16.646C16.3112 16.2099 16.5294 15.7106 16.6347 15.1823C16.74 14.6539 16.7298 14.1091 16.6049 13.585L15.9409 8.39304C15.6409 7.04304 14.8839 6.23203 13.9099 6.23203H5.07885C4.05885 6.23603 3.29985 7.01903 3.05785 8.34003V8.33904ZM12.5318 4.93104C12.4266 4.19209 12.0582 3.51595 11.4944 3.0268C10.9306 2.53765 10.2093 2.26835 9.46285 2.26835C8.71644 2.26835 7.9951 2.53765 7.43131 3.0268C6.86752 3.51595 6.49914 4.19209 6.39385 4.93104H12.5318ZM11.9999 9.95803C11.8313 9.96309 11.6674 9.90269 11.5425 9.78948C11.4175 9.67627 11.3413 9.51907 11.3298 9.35087C11.3183 9.18266 11.3724 9.01653 11.4807 8.88735C11.589 8.75817 11.7432 8.67599 11.9109 8.65804L11.9999 8.65304H12.0389C12.2074 8.64797 12.3713 8.70839 12.4962 8.8216C12.6212 8.93481 12.6974 9.09201 12.7089 9.26022C12.7204 9.42842 12.6663 9.59454 12.558 9.72372C12.4497 9.8529 12.2955 9.93509 12.1279 9.95304L12.0389 9.95803H11.9999ZM6.94485 9.95803C6.77633 9.96309 6.6124 9.90269 6.48746 9.78948C6.36253 9.67627 6.28631 9.51907 6.27479 9.35087C6.26328 9.18266 6.31736 9.01653 6.4257 8.88735C6.53404 8.75817 6.68822 8.67599 6.85585 8.65804L6.94485 8.65304H6.98285C7.15137 8.64797 7.3153 8.70839 7.44024 8.8216C7.56517 8.93481 7.6414 9.09201 7.65291 9.26022C7.66443 9.42842 7.61034 9.59454 7.502 9.72372C7.39366 9.8529 7.23949 9.93509 7.07185 9.95304L6.98285 9.95803H6.94485Z" fill="white"/>
</svg>
