<svg width="21" height="20" viewBox="0 0 21 20" fill="none" xmlns="http://www.w3.org/2000/svg">
<path d="M13.2641 19.9999C12.9529 20.0014 12.646 19.9276 12.3695 19.7849C12.0929 19.6421 11.8551 19.4345 11.6761 19.1799L11.5861 19.0439L7.58608 12.4269L0.94608 8.34692C0.632122 8.15319 0.378496 7.87564 0.213781 7.54553C0.0490649 7.21543 -0.0201919 6.84593 0.0137989 6.47858C0.0477897 6.11123 0.183689 5.76065 0.406179 5.46637C0.628669 5.17209 0.928901 4.94576 1.27308 4.81293L1.42808 4.76294L17.4931 0.0919189C17.6737 0.0392288 17.8609 0.0123405 18.0491 0.0119629C18.3434 0.014261 18.6334 0.0821971 18.8981 0.210815C19.1628 0.339434 19.3955 0.525491 19.5791 0.755432C19.7628 0.985373 19.8928 1.2534 19.9598 1.53998C20.0267 1.82655 20.0289 2.12441 19.9661 2.41193L19.9291 2.55493L15.1621 18.5869C15.042 18.9966 14.7919 19.356 14.4495 19.611C14.107 19.8659 13.691 20.0024 13.2641 19.9999ZM13.9641 5.25995C14.128 5.25894 14.288 5.31085 14.4201 5.40796L14.5071 5.48193C14.6369 5.61212 14.716 5.78432 14.7303 5.96759C14.7446 6.15086 14.6931 6.3332 14.5851 6.48193L14.5111 6.56891L9.12008 11.9899L12.9041 18.2559C12.9413 18.3202 12.9948 18.3735 13.0593 18.4103C13.1238 18.4472 13.1968 18.4664 13.2711 18.4659C13.3505 18.4664 13.4285 18.4448 13.4963 18.4034C13.5641 18.3621 13.6191 18.3027 13.6551 18.2319L13.6871 18.1539L18.4521 2.11597C18.4722 2.05003 18.4766 1.98022 18.4648 1.91229C18.453 1.84436 18.4253 1.78017 18.3841 1.72491C18.3442 1.67081 18.2922 1.62674 18.2324 1.59619C18.1725 1.56564 18.1063 1.54949 18.0391 1.54895H17.9951L17.9201 1.56293L1.85508 6.23492C1.78096 6.25643 1.714 6.29752 1.66121 6.35382C1.60843 6.41012 1.57176 6.47958 1.55507 6.55493C1.53659 6.6313 1.53881 6.71121 1.56148 6.78644C1.58416 6.86167 1.62648 6.92947 1.68409 6.98291L1.75208 7.03296L8.03608 10.8969L13.4181 5.48596C13.4897 5.41376 13.5749 5.35647 13.6688 5.3175C13.7627 5.27853 13.8634 5.25861 13.9651 5.25891L13.9641 5.25995Z" fill="white"/>
</svg>
