<svg width="13" height="10" viewBox="0 0 13 10" fill="none" xmlns="http://www.w3.org/2000/svg">
<path d="M4.62341 8.84C4.73591 8.95236 4.88836 9.01547 5.04736 9.01547C5.20636 9.01547 5.35881 8.95236 5.47131 8.84L12.3713 1.94C12.4837 1.8275 12.5469 1.67499 12.5469 1.51599C12.5469 1.35699 12.4837 1.20451 12.3713 1.09201L11.5223 0.243011C11.4666 0.187226 11.4005 0.142957 11.3276 0.112762C11.2548 0.0825679 11.1767 0.0670166 11.0979 0.0670166C11.0191 0.0670166 10.9409 0.0825679 10.868 0.112762C10.7952 0.142957 10.7291 0.187226 10.6733 0.243011L5.04639 5.87L2.41931 3.24301C2.36359 3.18723 2.29745 3.14296 2.22461 3.11276C2.15177 3.08257 2.07372 3.06702 1.99487 3.06702C1.91602 3.06702 1.83798 3.08257 1.76514 3.11276C1.6923 3.14296 1.62604 3.18723 1.57031 3.24301L0.721313 4.09201C0.608953 4.20451 0.545898 4.35699 0.545898 4.51599C0.545898 4.67499 0.608953 4.8275 0.721313 4.94L4.62341 8.84Z" fill="black"/>
</svg>
