<svg width="16" height="18" viewBox="0 0 16 18" fill="none" xmlns="http://www.w3.org/2000/svg">
<path d="M5.25717 17.96C4.61515 17.9609 3.99833 17.7101 3.53915 17.2614C3.07997 16.8127 2.81505 16.2019 2.80118 15.56L2.69412 14.49L2.50912 12.413L2.31912 10.135L2.10013 7.39999C2.08417 7.23507 2.13395 7.07052 2.23862 6.94208C2.34328 6.81363 2.4944 6.73166 2.65915 6.71399C2.8092 6.70406 2.95766 6.74948 3.07651 6.84161C3.19536 6.93374 3.27638 7.0662 3.30417 7.21399L3.32913 7.46399L3.52914 10.029L3.75113 12.686C3.85113 13.837 3.93817 14.768 4.00717 15.421C3.995 15.7453 4.11201 16.0611 4.33249 16.2993C4.55297 16.5374 4.85888 16.6783 5.18313 16.691C5.2138 16.691 5.24482 16.691 5.27615 16.691C7.32115 16.736 9.42812 16.737 11.6211 16.691C11.784 16.7019 11.9473 16.6805 12.1019 16.6281C12.2564 16.5756 12.3991 16.4932 12.5218 16.3855C12.6444 16.2779 12.7446 16.147 12.8166 16.0006C12.8885 15.8541 12.9308 15.6949 12.9411 15.532C12.9411 15.491 12.9411 15.451 12.9411 15.41L13.0471 14.345C13.0781 14.017 13.1101 13.654 13.1471 13.262L13.3701 10.648L13.6382 7.29501C13.6473 7.14471 13.7104 7.00277 13.8159 6.89529C13.9213 6.78781 14.062 6.722 14.2121 6.70999H14.2951C14.4452 6.72559 14.5845 6.79494 14.6874 6.90521C14.7903 7.01549 14.8499 7.15925 14.8551 7.31L14.8471 7.48499L14.5852 10.757L14.3142 13.951C14.2572 14.589 14.2041 15.126 14.1601 15.551C14.1454 16.2043 13.8726 16.8251 13.4013 17.2777C12.9299 17.7303 12.2985 17.9778 11.6452 17.966C10.5678 17.986 9.51113 17.9963 8.47513 17.997C7.38646 17.9957 6.31384 17.9833 5.25717 17.96ZM12.7212 5.23999H1.58517C1.43047 5.22955 1.28479 5.1633 1.17526 5.05356C1.06573 4.94381 0.999797 4.79803 0.989653 4.64331C0.979509 4.48859 1.02588 4.33545 1.12015 4.21234C1.21441 4.08924 1.35015 4.00455 1.50217 3.974L1.58517 3.96899H4.24313C4.39845 3.96698 4.54914 3.91574 4.67349 3.82266C4.79784 3.72958 4.88945 3.59944 4.93515 3.45099L4.95914 3.35699L5.16513 2.284C5.24454 1.94374 5.42855 1.63692 5.69131 1.40662C5.95408 1.17632 6.28242 1.03411 6.63016 1L6.76114 0.994995H10.2002C10.5527 1.00056 10.8942 1.11809 11.1756 1.33057C11.4569 1.54304 11.6634 1.83946 11.7652 2.177L11.8051 2.315L12.0052 3.34799C12.0321 3.50145 12.1065 3.64259 12.2179 3.7515C12.3293 3.8604 12.4721 3.93157 12.6261 3.95499L12.7201 3.961H15.3781C15.5366 3.96638 15.6873 4.03043 15.8012 4.14075C15.915 4.25106 15.9838 4.39975 15.9941 4.55792C16.0045 4.7161 15.9556 4.87247 15.8571 4.99667C15.7587 5.12087 15.6175 5.20404 15.4611 5.23001L15.3781 5.23599L12.7212 5.23999ZM10.9132 3.965C10.8851 3.89205 10.861 3.81761 10.8412 3.742L10.8092 3.60101L10.6201 2.608C10.6003 2.5262 10.5573 2.45185 10.4963 2.39386C10.4353 2.33587 10.3588 2.29669 10.2762 2.28101L10.2041 2.27399H6.76016C6.68024 2.27418 6.60189 2.29628 6.53366 2.33789C6.46543 2.3795 6.4099 2.43905 6.37314 2.51001L6.35116 2.56699L6.15115 3.60199C6.12867 3.72572 6.09523 3.84721 6.05118 3.965H10.9132Z" fill="#656B72"/>
</svg>
