<svg width="19" height="19" viewBox="0 0 19 19" fill="none" xmlns="http://www.w3.org/2000/svg">
<path d="M10.8572 17.2139L8.24012 12.887C8.10964 12.6716 8.05488 12.4187 8.0846 12.1687C8.11432 11.9186 8.22686 11.6857 8.40418 11.5069L13.3181 6.56994C13.4366 6.44852 13.5029 6.28561 13.5029 6.11596C13.5029 5.9463 13.4366 5.78333 13.3181 5.66192L13.3002 5.64391C13.2411 5.58651 13.1712 5.54142 13.0946 5.51122C13.018 5.48102 12.9362 5.46633 12.8539 5.46801C12.7716 5.46968 12.6903 5.4877 12.615 5.52099C12.5397 5.55428 12.4718 5.60216 12.4152 5.66192L7.51014 10.5989C7.33398 10.7772 7.10259 10.8904 6.85377 10.9202C6.60494 10.95 6.35339 10.8946 6.14014 10.7629L1.85511 8.12993C1.56356 7.93726 1.33016 7.6686 1.18018 7.35296C1.0302 7.03731 0.969381 6.68665 1.00416 6.33892C1.05662 6.03282 1.19513 5.74797 1.40357 5.51775C1.61201 5.28753 1.88176 5.12146 2.18116 5.03893L15.8811 1.05492C16.1681 0.970131 16.4728 0.965286 16.7623 1.04088C17.0519 1.11648 17.3153 1.26967 17.5242 1.48394C17.7342 1.69756 17.8829 1.96366 17.9548 2.25445C18.0268 2.54524 18.0193 2.85005 17.9331 3.13695L13.8721 16.822C13.7815 17.1334 13.6018 17.4115 13.355 17.6219C13.1081 17.8324 12.805 17.9658 12.4832 18.0059C12.1644 18.0393 11.8427 17.9819 11.5552 17.8404C11.2677 17.6988 11.0261 17.4789 10.8582 17.2059L10.8572 17.2139ZM5.25709 17.7629C5.13764 17.642 5.07068 17.4789 5.07068 17.309C5.07068 17.139 5.13764 16.9758 5.25709 16.8549L6.42017 15.684C6.48015 15.6257 6.55103 15.5797 6.62879 15.5489C6.70655 15.5181 6.78967 15.5031 6.8733 15.5044C6.95692 15.5058 7.0394 15.5237 7.11609 15.5571C7.19278 15.5905 7.26207 15.6386 7.32007 15.6989C7.43505 15.8191 7.49927 15.9791 7.49927 16.1454C7.49927 16.3118 7.43505 16.4717 7.32007 16.5919L6.15613 17.7629C6.09706 17.8221 6.02693 17.869 5.94971 17.901C5.8725 17.933 5.78977 17.9495 5.70618 17.9495C5.62259 17.9495 5.53974 17.933 5.46253 17.901C5.38531 17.869 5.31518 17.8221 5.25611 17.7629H5.25709ZM4.59009 14.517C4.4704 14.3962 4.40333 14.233 4.40333 14.0629C4.40333 13.8929 4.4704 13.7297 4.59009 13.6089L5.75208 12.4369C5.87151 12.3177 6.03342 12.2508 6.20215 12.2508C6.37089 12.2508 6.53268 12.3177 6.6521 12.4369C6.77192 12.5581 6.83912 12.7216 6.83912 12.892C6.83912 13.0623 6.77192 13.2258 6.6521 13.3469L5.48816 14.517C5.42923 14.5763 5.3591 14.6235 5.28187 14.6556C5.20463 14.6878 5.12175 14.7043 5.03809 14.7043C4.95443 14.7043 4.87167 14.6878 4.79444 14.6556C4.71721 14.6235 4.64707 14.5763 4.58814 14.517H4.59009ZM1.39014 13.4959C1.27039 13.3749 1.20325 13.2116 1.20325 13.0414C1.20325 12.8712 1.27039 12.7079 1.39014 12.5869L2.55311 11.4159C2.61217 11.3568 2.68231 11.3099 2.75953 11.2779C2.83674 11.2459 2.91959 11.2294 3.00318 11.2294C3.08677 11.2294 3.16949 11.2459 3.24671 11.2779C3.32392 11.3099 3.39406 11.3568 3.45313 11.4159C3.57295 11.5371 3.64014 11.7005 3.64014 11.8709C3.64014 12.0413 3.57295 12.2048 3.45313 12.3259L2.29017 13.4959C2.17061 13.6149 2.00875 13.6817 1.84009 13.6817C1.67144 13.6817 1.5097 13.6149 1.39014 13.4959Z" fill="#F76C68"/>
</svg>
