<svg width="16" height="14" viewBox="0 0 16 14" fill="none" xmlns="http://www.w3.org/2000/svg">
<path d="M7.53103 14.0001L7.337 13.8821C5.62046 12.8353 4.01928 11.6101 2.56002 10.2271C1.55502 9.23055 0.784071 8.02312 0.303003 6.69208C-0.125529 5.42538 -0.0875886 4.0473 0.409998 2.8061C0.662795 2.18983 1.04839 1.63685 1.53927 1.18659C2.03015 0.73633 2.61426 0.399817 3.25002 0.201056C3.46666 0.127584 3.6901 0.0760011 3.91702 0.0470644H4.00704C4.2157 0.017146 4.42626 0.00243422 4.63705 0.00305805H4.72C5.18709 0.0164262 5.64973 0.0982802 6.09304 0.246039H6.13705C6.16198 0.256864 6.18495 0.271737 6.20504 0.290045C6.36839 0.338132 6.5265 0.402469 6.67703 0.482062L6.962 0.606085C7.03628 0.648085 7.10781 0.694803 7.17605 0.746039C7.21905 0.777039 7.256 0.803075 7.285 0.820075L7.316 0.83808C7.38315 0.874656 7.44798 0.915412 7.51003 0.960089C8.3313 0.337795 9.33364 0.00133332 10.364 0.00208149H10.397C10.8704 -0.00152081 11.3414 0.0707168 11.792 0.216071C12.4236 0.413271 13.0036 0.747885 13.4905 1.19587C13.9774 1.64385 14.359 2.19409 14.608 2.80707C15.0975 4.04878 15.1386 5.42234 14.724 6.69105C14.2491 8.02718 13.4778 9.23849 12.468 10.2341C11.0163 11.6134 9.42507 12.838 7.72 13.8881L7.53304 13.9981L7.53103 14.0001ZM11.211 2.30006C11.0693 2.29845 10.9316 2.34758 10.8229 2.4386C10.7142 2.52962 10.6417 2.65656 10.6184 2.79639C10.5951 2.93623 10.6225 3.07977 10.6958 3.20112C10.7691 3.32247 10.8834 3.41362 11.018 3.45808C11.2533 3.54661 11.4559 3.70483 11.5988 3.91157C11.7418 4.11831 11.8183 4.36371 11.818 4.61506V4.63709C11.8032 4.80236 11.8547 4.9667 11.961 5.09406C12.07 5.21833 12.2232 5.29511 12.388 5.30805C12.5382 5.30368 12.6816 5.24421 12.7908 5.14094C12.9 5.03766 12.9673 4.8978 12.98 4.74805V4.66004C12.9906 4.15567 12.844 3.66054 12.5605 3.24323C12.277 2.82592 11.8708 2.50713 11.398 2.33106C11.3378 2.31077 11.2746 2.30029 11.211 2.30006Z" fill="#F76C68"/>
</svg>
