<svg width="15" height="16" viewBox="0 0 15 16" fill="none" xmlns="http://www.w3.org/2000/svg">
<path d="M14.1069 15.8779L14.0449 15.8259L11.6998 13.5399C10.4152 14.5443 8.83042 15.088 7.1998 15.0839C5.81378 15.0517 4.4682 14.6112 3.33139 13.8176C2.19458 13.024 1.31715 11.9127 0.809052 10.6228C0.300952 9.33286 0.184712 7.92169 0.474945 6.56602C0.765179 5.21035 1.44897 3.97045 2.44064 3.0016C3.43232 2.03276 4.68783 1.37805 6.0499 1.11947C7.41196 0.860896 8.82001 1.00994 10.0977 1.54795C11.3755 2.08596 12.4661 2.98901 13.233 4.14399C13.9999 5.29898 14.4089 6.65456 14.4089 8.04095C14.4067 9.81144 13.7268 11.5139 12.5089 12.7989L14.8269 15.0579C14.8774 15.1068 14.9177 15.165 14.9456 15.2295C14.9736 15.2939 14.9886 15.3632 14.9897 15.4335C14.9908 15.5037 14.978 15.5734 14.9521 15.6387C14.9262 15.704 14.8878 15.7636 14.8388 15.8139L14.8269 15.8259C14.7317 15.9182 14.6071 15.974 14.4749 15.9837C14.3428 15.9934 14.2114 15.9563 14.1039 15.8789L14.1069 15.8779ZM1.1069 8.04095C1.07888 9.25302 1.41263 10.446 2.06564 11.4675C2.71866 12.489 3.66129 13.2927 4.77316 13.7761C5.88503 14.2595 7.11565 14.4006 8.30807 14.1814C9.5005 13.9622 10.6006 13.3926 11.4679 12.5454C12.3351 11.6982 12.9302 10.6118 13.1772 9.42481C13.4242 8.23784 13.312 7.00418 12.8547 5.88132C12.3974 4.75845 11.616 3.79731 10.6101 3.12059C9.60411 2.44387 8.41928 2.08227 7.20688 2.08195C5.60703 2.063 4.06503 2.68001 2.91989 3.7974C1.77476 4.91478 1.12012 6.44111 1.09982 8.04095H1.1069Z" fill="white"/>
</svg>
