<svg width="17" height="17" viewBox="0 0 17 17" fill="none" xmlns="http://www.w3.org/2000/svg">
<path d="M12.407 15.8811C12.3819 15.8631 12.3583 15.8434 12.336 15.8221L8.80197 12.3651C8.74229 12.3067 8.69508 12.2369 8.66305 12.1598C8.63103 12.0827 8.61482 11.9999 8.61557 11.9164C8.61632 11.8329 8.63393 11.7505 8.66733 11.6739C8.70073 11.5974 8.74932 11.5284 8.81003 11.4711C8.92163 11.3657 9.0663 11.3022 9.21945 11.2914C9.3726 11.2807 9.52474 11.3233 9.64999 11.4121L9.72299 11.4741L12.149 13.8421V3.88913C12.1531 3.72666 12.2178 3.57159 12.3304 3.45442C12.443 3.33725 12.5954 3.26645 12.7575 3.25592C12.9197 3.24539 13.0801 3.29591 13.2069 3.39754C13.3337 3.49916 13.4179 3.64454 13.443 3.80511L13.4489 3.88913V13.8391L15.875 11.4711C15.9977 11.3516 16.1619 11.2842 16.3332 11.2831C16.5045 11.2819 16.6696 11.3472 16.7939 11.4651C16.9053 11.5706 16.9736 11.7137 16.9856 11.8666C16.9976 12.0196 16.9525 12.1715 16.859 12.2931L16.796 12.3641L13.2619 15.8211C13.1506 15.927 13.006 15.991 12.8528 16.0019C12.6995 16.0129 12.5472 15.9702 12.422 15.8811H12.407ZM3.54294 13.1681L3.53793 13.0841V3.13112L1.11203 5.50113C1.00045 5.60893 0.854642 5.67425 0.69992 5.68576C0.545198 5.69727 0.391284 5.65422 0.264983 5.56412L0.196014 5.50212C0.0856755 5.39663 0.0180619 5.2542 0.00607216 5.10202C-0.00591761 4.94984 0.0384929 4.79859 0.13095 4.67712L0.193938 4.60512L3.72995 1.15312C3.80292 1.08066 3.89203 1.02651 3.98996 0.995117H4.337C4.42237 1.01456 4.5029 1.05096 4.57394 1.10213C4.59642 1.11872 4.61777 1.13676 4.63791 1.15613L4.64291 1.16112L8.17697 4.61812C8.23716 4.67597 8.28501 4.74539 8.31772 4.8222C8.35043 4.89902 8.36728 4.98164 8.36728 5.06512C8.36728 5.14861 8.35043 5.23123 8.31772 5.30804C8.28501 5.38486 8.23716 5.45426 8.17697 5.51212C8.06506 5.61924 7.91916 5.6838 7.76462 5.69458C7.61008 5.70536 7.45672 5.66167 7.33102 5.57112L7.25693 5.50912L4.83102 3.14012V13.0901C4.82692 13.2526 4.76213 13.4077 4.6495 13.5248C4.53688 13.642 4.38456 13.7128 4.22238 13.7233C4.0602 13.7339 3.89987 13.6833 3.77304 13.5817C3.64621 13.4801 3.56203 13.3347 3.53696 13.1741L3.54294 13.1681Z" fill="#656B72"/>
</svg>
